<svg width="32" height="32" viewBox="0 0 32 32" fill="none" xmlns="http://www.w3.org/2000/svg">
<g clip-path="url(#clip0)">
<path d="M32.0001 21.0561C31.8721 21.8881 30.9441 22.3361 30.3041 22.7521C29.1521 23.5201 28.0321 24.2561 26.8801 25.0241C24.1601 26.8481 21.4081 28.6721 18.6881 30.4961C18.0481 30.9121 17.4081 31.3601 16.7681 31.7761C16.3201 32.0961 15.7121 32.0961 15.2321 31.7761C13.4081 30.5601 11.5521 29.3121 9.72811 28.0961L1.66411 22.7201C0.960111 22.2721 0.0321111 21.8241 0.000111118 20.8641C-0.0318889 19.8081 0.000111118 18.7201 0.000111118 17.6641V12.5441C0.000111118 11.6161 -0.191889 10.5281 0.672111 9.95211C2.72011 8.54411 4.80011 7.20011 6.88011 5.82411C9.44011 4.12811 12.0001 2.40011 14.5601 0.704111C15.2641 0.224112 15.9681 -0.287888 16.8321 0.288113C17.5681 0.768114 18.2721 1.24811 19.0081 1.72811C21.8561 3.61611 24.7041 5.53611 27.5521 7.42411L30.7201 9.53611C30.9121 9.66411 31.1361 9.79211 31.3281 9.95211C31.7761 10.2721 31.9681 10.7201 31.9681 11.2641V20.0641C32.0001 20.4161 32.0321 20.7361 32.0001 21.0561C32.0001 20.9921 32.0001 21.0881 32.0001 21.0561ZM17.3761 28.0641L28.1601 20.8641L23.3601 17.6321L17.3761 21.6321V28.0641ZM14.6241 28.0641V21.6641L8.67211 17.6641L3.84011 20.8641L14.6241 28.0641ZM2.75211 18.3041L6.17611 16.0001L2.75211 13.6961V18.3041ZM14.6241 3.93611L3.84011 11.1361L8.64011 14.3681L14.5921 10.3681V3.93611H14.6241ZM16.0001 12.7361L11.1361 16.0001L16.0001 19.2641L20.8641 16.0001L16.0001 12.7361ZM17.3761 3.93611V10.3361L23.3281 14.3361L28.1281 11.1041L17.3761 3.93611ZM29.2481 13.6961L25.8241 16.0001L29.2801 18.3041L29.2481 13.6961Z" fill="#2A225A"/>
</g>
<defs>
<clipPath id="clip0">
<rect width="32" height="32" transform="matrix(1 0 0 -1 0 32)" fill="white"/>
</clipPath>
</defs>
</svg>
