<svg width="56" height="49" viewBox="0 0 56 49" fill="none" xmlns="http://www.w3.org/2000/svg">
<path fill-rule="evenodd" clip-rule="evenodd" d="M38.5866 45.0067C38.5866 45.0066 38.5866 45.0066 38.5866 45.0066V38.3616C38.5866 38.3616 38.5866 38.3616 38.5866 38.3616V45.0067ZM11.2783 7.71729C15.5916 2.97613 21.811 0 28.7256 0C41.6056 0 52.0737 10.3265 52.3024 23.1519H47.121C47.1478 22.7266 47.1614 22.2977 47.1614 21.8657C47.1614 10.7367 38.1396 1.71496 27.0107 1.71496C21.3954 1.71496 16.3165 4.01182 12.6623 7.71729H11.2783Z" fill="#2A225A"/>
<path d="M50.2577 25.9584L44.6966 20.9864L54.6426 19.9236L50.2577 25.9584Z" fill="#2A225A"/>
<path fill-rule="evenodd" clip-rule="evenodd" d="M17.4134 3.85974C17.4134 3.85974 17.4134 3.85976 17.4134 3.85976L17.4134 10.5047C17.4134 10.5047 17.4134 10.5047 17.4134 10.5047L17.4134 3.85974ZM44.7217 41.1491C40.4084 45.8903 34.189 48.8664 27.2744 48.8664C14.3944 48.8664 3.92628 38.5399 3.6976 25.7145L8.87895 25.7145C8.85216 26.1398 8.83856 26.5687 8.83856 27.0008C8.83856 38.1297 17.8603 47.1515 28.9893 47.1515C34.6046 47.1515 39.6835 44.8546 43.3376 41.1491H44.7217Z" fill="#2A225A"/>
<path d="M5.7423 22.908L11.3034 27.8799L1.35739 28.9427L5.7423 22.908Z" fill="#2A225A"/>
</svg>
