<svg width="56" height="49" viewBox="0 0 56 49" fill="none" xmlns="http://www.w3.org/2000/svg">
<path d="M22.1195 29.9632C24.7026 31.9544 28.5486 32.95 33.6574 32.95C35.3356 32.95 36.8575 32.7094 38.2232 32.2282C38.5687 32.112 38.8443 32.054 39.0499 32.054C39.486 32.054 39.704 32.2655 39.704 32.6887C39.704 33.0205 39.4531 33.5723 38.9512 34.3438C37.2894 36.8992 35.4014 38.1769 33.2872 38.1769C32.2012 38.1769 31.1606 37.9446 30.1651 37.48C28.7255 36.8246 27.1994 35.7626 25.587 34.2941C23.9746 32.8256 22.8187 31.3819 22.1195 29.9632ZM26.4508 18.3022C25.0852 19.4223 24.0445 21.0858 23.3288 23.2927C22.9504 24.4874 22.7611 25.6987 22.7611 26.9266C22.7611 29.0755 23.4563 30.1499 24.8466 30.1499C25.5541 30.1499 26.2863 29.8553 27.0431 29.2663C27.8 28.6772 28.4787 27.9139 29.0792 26.9764C29.688 26.0306 30.1857 24.9105 30.5724 23.6162C30.9672 22.322 31.1647 21.0277 31.1647 19.7334C31.1647 17.9081 30.8438 16.6097 30.2022 15.8381C29.5605 15.0665 28.4828 14.6807 26.9691 14.6807C26.13 14.6807 25.225 14.772 24.2543 14.9545C23.2835 15.137 22.4609 15.3403 21.7863 15.5643C21.1199 15.78 20.5194 15.9792 19.9846 16.1617C19.4499 16.3442 19.1414 16.4355 19.0591 16.4355C18.7547 16.4355 18.6026 16.311 18.6026 16.0621C18.6026 15.863 18.8041 15.6058 19.2072 15.2905C19.6185 14.967 20.1862 14.6309 20.9101 14.2825C21.6341 13.9257 22.4362 13.5939 23.3164 13.2869C25.3649 12.5734 27.3681 12.2166 29.326 12.2166C33.0856 12.2166 35.7428 13.3201 37.2977 15.527C38.2108 16.8296 38.6674 18.4391 38.6674 20.3557C38.6674 21.8076 38.4165 23.1724 37.9147 24.4501C37.4128 25.7195 36.7136 26.8312 35.8169 27.7853C34.9202 28.7394 33.8671 29.5608 32.6578 30.2494C30.2145 31.635 27.4462 32.3278 24.353 32.3278C18.2982 32.3278 15.2708 30.2411 15.2708 26.0679C15.2708 24.8981 15.5217 23.778 16.0235 22.7078C16.5253 21.6292 17.1835 20.6958 17.9979 19.9076C18.8206 19.1112 19.7419 18.4142 20.7621 17.8169C22.8352 16.6221 24.9165 16.0248 27.0061 16.0248C27.3352 16.0248 27.5696 16.087 27.7095 16.2115C27.8576 16.3276 27.9316 16.4479 27.9316 16.5724C27.9316 16.6968 27.911 16.8047 27.8699 16.8959C27.837 16.9789 27.7671 17.0785 27.6601 17.1946C27.5532 17.3108 27.4586 17.4103 27.3763 17.4933C27.1706 17.6758 26.8621 17.9455 26.4508 18.3022Z" fill="#2A225A"/>
<path fill-rule="evenodd" clip-rule="evenodd" d="M38.5866 45.0067C38.5867 45.0067 38.5867 45.0067 38.5868 45.0066V38.3615C38.5867 38.3616 38.5867 38.3616 38.5866 38.3617V45.0067ZM11.2783 7.71733C15.5916 2.97614 21.8111 0 28.7257 0C41.6057 0 52.0738 10.3265 52.3025 23.1519H47.121C47.1478 22.7266 47.1614 22.2977 47.1614 21.8657C47.1614 10.7367 38.1396 1.71496 27.0106 1.71496C21.3953 1.71496 16.3164 4.01183 12.6623 7.71733H11.2783Z" fill="#2A225A"/>
<path d="M50.2579 25.9584L44.6969 20.9864L54.6428 19.9236L50.2579 25.9584Z" fill="#2A225A"/>
<path fill-rule="evenodd" clip-rule="evenodd" d="M44.7219 41.1491C40.4087 45.8903 34.1892 48.8664 27.2746 48.8664C14.3946 48.8664 3.92646 38.5399 3.69777 25.7146L8.87917 25.7146C8.85238 26.1398 8.83878 26.5687 8.83878 27.0008C8.83878 38.1297 17.8606 47.1515 28.9895 47.1515C34.6049 47.1515 39.6838 44.8546 43.3379 41.1491H44.7219Z" fill="#2A225A"/>
<path d="M5.74231 22.9081L11.3034 27.88L1.35739 28.9428L5.74231 22.9081Z" fill="#2A225A"/>
</svg>
