<svg width="46" height="40" viewBox="0 0 46 40" fill="none" xmlns="http://www.w3.org/2000/svg">
<path d="M18.1061 24.5266C20.2205 26.1565 23.3687 26.9715 27.5505 26.9715C28.9242 26.9715 30.17 26.7745 31.2879 26.3806C31.5707 26.2856 31.7963 26.238 31.9646 26.238C32.3215 26.238 32.5 26.4112 32.5 26.7576C32.5 27.0292 32.2946 27.4808 31.8838 28.1124C30.5236 30.2041 28.9781 31.25 27.2475 31.25C26.3586 31.25 25.5067 31.0598 24.6919 30.6795C23.5135 30.143 22.2643 29.2737 20.9444 28.0717C19.6246 26.8696 18.6785 25.6879 18.1061 24.5266ZM21.6515 14.9814C20.5337 15.8983 19.6818 17.2599 19.096 19.0664C18.7862 20.0443 18.6313 21.0359 18.6313 22.041C18.6313 23.7999 19.2003 24.6794 20.3384 24.6794C20.9175 24.6794 21.5168 24.4383 22.1364 23.9561C22.7559 23.474 23.3114 22.8492 23.803 22.0817C24.3013 21.3075 24.7088 20.3907 25.0253 19.3313C25.3485 18.2718 25.5101 17.2124 25.5101 16.1529C25.5101 14.6588 25.2475 13.596 24.7222 12.9644C24.197 12.3328 23.3148 12.017 22.0758 12.017C21.3889 12.017 20.6481 12.0917 19.8535 12.2411C19.0589 12.3905 18.3855 12.5569 17.8333 12.7403C17.2879 12.9169 16.7963 13.0799 16.3586 13.2293C15.9209 13.3787 15.6684 13.4534 15.601 13.4534C15.3519 13.4534 15.2273 13.3515 15.2273 13.1478C15.2273 12.9848 15.3923 12.7742 15.7222 12.5162C16.0589 12.2513 16.5236 11.9763 17.1162 11.691C17.7088 11.399 18.3653 11.1274 19.0859 10.8761C20.7626 10.292 22.4024 10 24.0051 10C27.0825 10 29.2576 10.9032 30.5303 12.7097C31.2778 13.776 31.6515 15.0935 31.6515 16.6623C31.6515 17.8508 31.4461 18.9679 31.0354 20.0138C30.6246 21.0529 30.0522 21.9629 29.3182 22.7439C28.5842 23.5249 27.7222 24.1972 26.7323 24.7609C24.7323 25.8951 22.4663 26.4621 19.9343 26.4621C14.9781 26.4621 12.5 24.7541 12.5 21.3381C12.5 20.3805 12.7054 19.4637 13.1162 18.5876C13.5269 17.7047 14.0657 16.9407 14.7323 16.2955C15.4057 15.6436 16.1599 15.0731 16.9949 14.5841C18.6919 13.6062 20.3956 13.1172 22.1061 13.1172C22.3754 13.1172 22.5673 13.1681 22.6818 13.27C22.803 13.3651 22.8636 13.4636 22.8636 13.5654C22.8636 13.6673 22.8468 13.7556 22.8131 13.8303C22.7862 13.8982 22.729 13.9797 22.6414 14.0748C22.5539 14.1699 22.4764 14.2514 22.4091 14.3193C22.2407 14.4687 21.9882 14.6894 21.6515 14.9814Z" fill="#2A225A"/>
<path fill-rule="evenodd" clip-rule="evenodd" d="M31.5853 36.8406C31.5854 36.8406 31.5854 36.8406 31.5854 36.8406V31.4012C31.5854 31.4012 31.5854 31.4013 31.5853 31.4013V36.8406ZM9.23193 6.31706C12.7626 2.43614 17.8536 0 23.5136 0C34.0566 0 42.6254 8.45282 42.8126 18.9511H38.5713C38.5932 18.603 38.6043 18.252 38.6043 17.8983C38.6043 8.78864 31.2195 1.40379 22.1098 1.40379C17.5133 1.40379 13.356 3.28391 10.3648 6.31706H9.23193Z" fill="#2A225A"/>
<path d="M41.1389 21.2484L36.5869 17.1786L44.7282 16.3087L41.1389 21.2484Z" fill="#2A225A"/>
<path fill-rule="evenodd" clip-rule="evenodd" d="M14.254 3.1594C14.254 3.15941 14.254 3.15943 14.2539 3.15945L14.2539 8.59872C14.254 8.59869 14.254 8.59867 14.254 8.59864L14.254 3.1594ZM36.6074 33.6829C33.0768 37.5639 27.9858 40 22.3258 40C11.7828 40 3.21399 31.5472 3.0268 21.0489L7.26796 21.0489C7.24603 21.397 7.2349 21.748 7.2349 22.1017C7.2349 31.2114 14.6198 38.5962 23.7294 38.5962C28.3259 38.5962 32.4833 36.7161 35.4744 33.6829H36.6074Z" fill="#2A225A"/>
<path d="M4.70041 18.7516L9.25246 22.8214L1.11111 23.6913L4.70041 18.7516Z" fill="#2A225A"/>
</svg>
