<svg width="30" height="30" viewBox="0 0 30 30" fill="none" xmlns="http://www.w3.org/2000/svg">
<g clip-path="url(#clip0)">
<path d="M2.87941 10.48C3.2589 10.7477 4.40284 11.5431 6.31129 12.8656C8.21979 14.1881 9.68184 15.2064 10.6975 15.9205C10.8091 15.9988 11.0461 16.1689 11.4088 16.4312C11.7715 16.6937 12.0729 16.9058 12.3127 17.0675C12.5527 17.2293 12.8429 17.4107 13.1834 17.6115C13.5239 17.8122 13.8448 17.9631 14.1461 18.063C14.4475 18.1638 14.7265 18.2137 14.9832 18.2137H15H15.0169C15.2735 18.2137 15.5526 18.1637 15.854 18.063C16.1553 17.9631 16.4765 17.812 16.8166 17.6115C17.1569 17.4104 17.4471 17.2292 17.6871 17.0675C17.9271 16.9058 18.2282 16.6937 18.5911 16.4312C18.9537 16.1687 19.191 15.9988 19.3026 15.9205C20.3292 15.2064 22.9411 13.3927 27.1374 10.4796C27.9521 9.91065 28.6327 9.22414 29.1795 8.42052C29.7267 7.61726 30 6.77459 30 5.89299C30 5.15628 29.7348 4.52565 29.2046 4.00114C28.6745 3.47652 28.0466 3.21436 27.3214 3.21436H2.67846C1.81914 3.21436 1.15784 3.50449 0.694668 4.08476C0.231556 4.66514 0 5.39059 0 6.26105C0 6.96416 0.307021 7.72609 0.92077 8.54636C1.53446 9.36668 2.18755 10.0113 2.87941 10.48Z" fill="#2A225A"/>
<path d="M28.3257 12.2711C24.6654 14.7486 21.886 16.674 19.9889 18.0469C19.3528 18.5154 18.8367 18.8812 18.4404 19.1433C18.0441 19.4056 17.517 19.6735 16.8584 19.9468C16.2 20.2205 15.5864 20.3569 15.0171 20.3569H15.0001H14.9832C14.414 20.3569 13.8001 20.2205 13.1417 19.9468C12.4834 19.6735 11.9559 19.4056 11.5597 19.1433C11.1636 18.8812 10.6474 18.5154 10.0113 18.0469C8.50453 16.942 5.73114 15.0165 1.69102 12.2711C1.0547 11.8473 0.491081 11.3615 0 10.8147V24.1067C0 24.8438 0.262164 25.4741 0.786785 25.9986C1.31129 26.5234 1.94198 26.7857 2.67864 26.7857H27.3216C28.0581 26.7857 28.6887 26.5234 29.2133 25.9986C29.738 25.4739 30 24.8439 30 24.1067V10.8147C29.5201 11.3502 28.9622 11.836 28.3257 12.2711Z" fill="#2A225A"/>
</g>
<defs>
<clipPath id="clip0">
<rect width="30" height="30" fill="white"/>
</clipPath>
</defs>
</svg>
