<svg width="228" height="61" viewBox="0 0 228 61" fill="none" xmlns="http://www.w3.org/2000/svg">
<path d="M21.9103 48.8201C20.4403 47.3014 22.3808 45.2002 24.3699 45.9146C29.9473 47.9178 36.8745 48.9195 45.1515 48.9195C49.2727 48.9195 53.0101 48.3634 56.3636 47.2512C57.2121 46.9827 57.8889 46.8485 58.3939 46.8485C59.4646 46.8485 60 47.3375 60 48.3154C60 49.0825 59.3838 50.3576 58.1515 52.1409C54.0707 58.047 49.4343 61 44.2424 61C41.5758 61 39.0202 60.4631 36.5758 59.3893C33.0404 57.8744 29.2929 55.4199 25.3333 52.0259C24.08 50.9515 22.939 49.883 21.9103 48.8201ZM27.4545 15.0652C24.101 17.6539 21.5455 21.4986 19.7879 26.5992C18.8586 29.3605 18.3939 32.1601 18.3939 34.9981C18.3939 39.9645 20.101 42.4477 23.5152 42.4477C25.2525 42.4477 27.0505 41.767 28.9091 40.4056C30.7677 39.0441 32.4343 37.28 33.9091 35.1131C35.404 32.9271 36.6263 30.3384 37.5758 27.3471C38.5455 24.3557 39.0303 21.3643 39.0303 18.373C39.0303 14.1544 38.2424 11.1534 36.6667 9.37009C35.0909 7.58677 32.4444 6.69511 28.7273 6.69511C26.6667 6.69511 24.4444 6.90604 22.0606 7.3279C19.6768 7.74976 17.6566 8.21956 16 8.7373C14.3636 9.23586 12.8889 9.69607 11.5758 10.1179C10.2626 10.5398 9.50505 10.7507 9.30303 10.7507C8.55556 10.7507 8.18182 10.4631 8.18182 9.88782C8.18182 9.42761 8.67677 8.83317 9.66667 8.10451C10.6768 7.35666 12.0707 6.58006 13.8485 5.77469C15.6263 4.95014 17.596 4.18313 19.7576 3.47363C24.7879 1.82454 29.7071 1 34.5152 1C43.7475 1 50.2727 3.55034 54.0909 8.65101C56.3333 11.6616 57.4545 15.3816 57.4545 19.8111C57.4545 23.1668 56.8384 26.3212 55.6061 29.2742C54.3737 32.2081 52.6566 34.7776 50.4545 36.9827C48.2525 39.1879 45.6667 41.0863 42.697 42.6779C36.697 45.8802 29.899 47.4813 22.303 47.4813C7.43434 47.4813 0 42.6587 0 33.0134C0 30.3097 0.616162 27.721 1.84848 25.2474C3.08081 22.7546 4.69697 20.5973 6.69697 18.7756C8.71717 16.9348 10.9798 15.3241 13.4848 13.9434C18.5758 11.1822 23.6869 9.80153 28.8182 9.80153C29.6263 9.80153 30.202 9.94535 30.5455 10.233C30.9091 10.5014 31.0909 10.7795 31.0909 11.0671C31.0909 11.3547 31.0404 11.604 30.9394 11.815C30.8586 12.0067 30.6869 12.2368 30.4242 12.5053C30.1616 12.7737 29.9293 13.0038 29.7273 13.1956C29.2222 13.6174 28.4646 14.2407 27.4545 15.0652Z" fill="#65B362"/>
<path d="M89.9141 45H82.2266L81.6641 30.7969C81.6641 30.3125 81.6797 29.7734 81.7109 29.1797C81.7578 28.5859 81.8047 28.1016 81.8516 27.7266H81.7578C81.6953 27.9609 81.6172 28.2109 81.5234 28.4766C81.4453 28.7422 81.3516 29.0156 81.2422 29.2969C81.1484 29.5781 81.0469 29.8516 80.9375 30.1172C80.8438 30.3672 80.75 30.5938 80.6562 30.7969L73.9766 45H66.1484L64.5312 21H71.6328V36.6094C71.6328 36.9688 71.6094 37.4219 71.5625 37.9688C71.5312 38.5156 71.4766 38.9688 71.3984 39.3281H71.5391C71.6016 39.1719 71.6719 38.9688 71.75 38.7188C71.8438 38.4688 71.9375 38.2109 72.0312 37.9453C72.125 37.6641 72.2188 37.3906 72.3125 37.125C72.4062 36.8594 72.5 36.6328 72.5938 36.4453L79.8828 21H87.0312L87.4766 36.5625C87.4766 36.7344 87.4688 36.9531 87.4531 37.2188C87.4531 37.4844 87.4375 37.7578 87.4062 38.0391C87.3906 38.3047 87.3672 38.5625 87.3359 38.8125C87.3203 39.0469 87.2969 39.2344 87.2656 39.375H87.4297C87.4766 39.2188 87.5391 39.0156 87.6172 38.7656C87.6953 38.5156 87.7812 38.25 87.875 37.9688C87.9688 37.6875 88.0625 37.4219 88.1562 37.1719C88.25 36.9219 88.3281 36.7188 88.3906 36.5625L94.6719 21H101.867L89.9141 45ZM124.578 27.1875C124.578 28.4219 124.312 29.5547 123.781 30.5859C123.266 31.6172 122.391 32.5078 121.156 33.2578C119.938 34.0078 118.312 34.6016 116.281 35.0391C114.25 35.4609 111.719 35.6953 108.688 35.7422C108.656 35.8359 108.641 35.9219 108.641 36C108.641 36.0625 108.641 36.1328 108.641 36.2109C108.641 36.6953 108.719 37.1797 108.875 37.6641C109.031 38.1484 109.297 38.5859 109.672 38.9766C110.062 39.3672 110.57 39.6875 111.195 39.9375C111.82 40.1719 112.602 40.2891 113.539 40.2891C114.102 40.2891 114.711 40.2422 115.367 40.1484C116.039 40.0391 116.719 39.8906 117.406 39.7031C118.094 39.5 118.773 39.2656 119.445 39C120.133 38.7188 120.766 38.4141 121.344 38.0859L120.195 43.6172C119.711 43.8672 119.156 44.1094 118.531 44.3438C117.906 44.5781 117.227 44.7891 116.492 44.9766C115.773 45.1641 115 45.3125 114.172 45.4219C113.359 45.5312 112.523 45.5859 111.664 45.5859C109.852 45.5859 108.297 45.3203 107 44.7891C105.703 44.2578 104.633 43.5469 103.789 42.6562C102.961 41.75 102.352 40.6953 101.961 39.4922C101.57 38.2891 101.375 37.0078 101.375 35.6484C101.375 33.6016 101.711 31.6562 102.383 29.8125C103.07 27.9688 104.039 26.3516 105.289 24.9609C106.555 23.5703 108.07 22.4688 109.836 21.6562C111.617 20.8281 113.602 20.4141 115.789 20.4141C117.367 20.4141 118.711 20.6016 119.82 20.9766C120.93 21.3516 121.836 21.8594 122.539 22.5C123.242 23.125 123.758 23.8438 124.086 24.6562C124.414 25.4688 124.578 26.3125 124.578 27.1875ZM117.523 27.2812C117.523 26.7031 117.305 26.2266 116.867 25.8516C116.445 25.4609 115.844 25.2656 115.062 25.2656C114.375 25.2656 113.711 25.4141 113.07 25.7109C112.445 26.0078 111.867 26.4219 111.336 26.9531C110.82 27.4688 110.375 28.0938 110 28.8281C109.625 29.5469 109.344 30.3281 109.156 31.1719C111.969 31.2031 114.062 30.8828 115.438 30.2109C116.828 29.5391 117.523 28.5625 117.523 27.2812ZM144.406 27.8203H144.359C144.031 27.6484 143.609 27.4922 143.094 27.3516C142.594 27.2109 142.125 27.1406 141.688 27.1406C140.766 27.1406 139.938 27.3516 139.203 27.7734C138.469 28.1797 137.82 28.7344 137.258 29.4375C136.695 30.1406 136.219 30.9688 135.828 31.9219C135.453 32.8594 135.148 33.8594 134.914 34.9219L132.805 45H125.305L128.586 29.6953C128.742 28.9609 128.891 28.2031 129.031 27.4219C129.188 26.6406 129.328 25.875 129.453 25.125C129.594 24.3594 129.711 23.625 129.805 22.9219C129.914 22.2188 130 21.5781 130.062 21H137.398C137.352 21.4531 137.297 21.9219 137.234 22.4062C137.188 22.8906 137.133 23.3594 137.07 23.8125C137.023 24.25 136.969 24.6484 136.906 25.0078C136.859 25.3672 136.82 25.6484 136.789 25.8516H136.883C137.852 24.0547 138.867 22.7031 139.93 21.7969C141.008 20.875 142.25 20.4141 143.656 20.4141C144.062 20.4141 144.461 20.4531 144.852 20.5312C145.242 20.6094 145.594 20.6719 145.906 20.7188L144.406 27.8203ZM162.336 26.4609H156.734L154.812 35.4375C154.781 35.6406 154.742 35.8594 154.695 36.0938C154.648 36.3281 154.602 36.5625 154.555 36.7969C154.523 37.0312 154.492 37.2578 154.461 37.4766C154.43 37.6797 154.414 37.8516 154.414 37.9922C154.414 38.6172 154.57 39.0781 154.883 39.375C155.195 39.6719 155.711 39.8203 156.43 39.8203C156.617 39.8203 156.852 39.7969 157.133 39.75C157.43 39.7031 157.727 39.6406 158.023 39.5625C158.336 39.4844 158.633 39.4062 158.914 39.3281C159.195 39.2344 159.422 39.1562 159.594 39.0938L158.445 44.5781C158.164 44.6875 157.82 44.7969 157.414 44.9062C157.008 45.0156 156.562 45.1172 156.078 45.2109C155.594 45.3047 155.086 45.3828 154.555 45.4453C154.039 45.5078 153.531 45.5391 153.031 45.5391C151.844 45.5391 150.852 45.3828 150.055 45.0703C149.258 44.7734 148.617 44.3594 148.133 43.8281C147.664 43.2812 147.328 42.6484 147.125 41.9297C146.938 41.2109 146.844 40.4297 146.844 39.5859C146.844 39.3359 146.859 39.0469 146.891 38.7188C146.922 38.3906 146.961 38.0547 147.008 37.7109C147.07 37.3672 147.133 37.0234 147.195 36.6797C147.273 36.3203 147.344 35.9922 147.406 35.6953L149.328 26.4609H145.625L146.938 21H150.477L151.695 15.375L159.5 13.4531L157.93 21H163.625L162.336 26.4609ZM177.125 13.2656C177.125 13.875 177.008 14.4219 176.773 14.9062C176.539 15.3906 176.219 15.8125 175.812 16.1719C175.422 16.5156 174.953 16.7812 174.406 16.9688C173.875 17.1562 173.297 17.25 172.672 17.25C172.078 17.25 171.523 17.1641 171.008 16.9922C170.508 16.8047 170.07 16.5547 169.695 16.2422C169.336 15.9141 169.047 15.5313 168.828 15.0938C168.625 14.6562 168.523 14.1797 168.523 13.6641C168.523 13.0547 168.633 12.5078 168.852 12.0234C169.086 11.5391 169.398 11.125 169.789 10.7812C170.195 10.4219 170.672 10.1484 171.219 9.96094C171.766 9.77344 172.359 9.67969 173 9.67969C173.594 9.67969 174.141 9.77344 174.641 9.96094C175.141 10.1328 175.57 10.3828 175.93 10.7109C176.305 11.0234 176.594 11.3984 176.797 11.8359C177.016 12.2734 177.125 12.75 177.125 13.2656ZM174.688 44.7891C174.406 44.8672 174.078 44.9453 173.703 45.0234C173.344 45.1016 172.953 45.1719 172.531 45.2344C172.125 45.3125 171.695 45.3672 171.242 45.3984C170.805 45.4453 170.367 45.4688 169.93 45.4688C168.883 45.4688 167.984 45.3281 167.234 45.0469C166.5 44.7812 165.891 44.4062 165.406 43.9219C164.922 43.4219 164.562 42.8359 164.328 42.1641C164.109 41.4766 164 40.7266 164 39.9141C164 39.5703 164.016 39.1875 164.047 38.7656C164.094 38.3438 164.148 37.9062 164.211 37.4531C164.273 36.9844 164.344 36.5156 164.422 36.0469C164.516 35.5625 164.609 35.1016 164.703 34.6641C164.766 34.3984 164.867 33.9141 165.008 33.2109C165.164 32.4922 165.336 31.6719 165.523 30.75C165.727 29.8281 165.938 28.8594 166.156 27.8438C166.375 26.8125 166.578 25.8359 166.766 24.9141C166.969 23.9922 167.141 23.1797 167.281 22.4766C167.438 21.7578 167.547 21.2656 167.609 21H175.109L172.25 34.5C172.125 35.0469 171.992 35.6641 171.852 36.3516C171.711 37.0234 171.641 37.6094 171.641 38.1094C171.641 38.7031 171.828 39.1172 172.203 39.3516C172.578 39.5859 173.008 39.7031 173.492 39.7031C173.898 39.7031 174.305 39.6641 174.711 39.5859C175.133 39.4922 175.516 39.375 175.859 39.2344C175.656 40.1719 175.461 41.1016 175.273 42.0234C175.086 42.9297 174.891 43.8516 174.688 44.7891ZM199.414 15.2344C198.977 15.0625 198.492 14.9141 197.961 14.7891C197.445 14.6484 196.938 14.5781 196.438 14.5781C195.328 14.5781 194.477 14.8828 193.883 15.4922C193.289 16.1016 192.844 17.0547 192.547 18.3516L191.984 21H197.445L196.297 26.4609H190.719L185.023 52.9688H177.617L183.289 26.4609H179.211L180.406 21H184.438L185.211 17.5547C185.867 14.6328 187.086 12.4609 188.867 11.0391C190.664 9.61719 193.094 8.90625 196.156 8.90625C196.953 8.90625 197.75 8.96875 198.547 9.09375C199.359 9.21875 200.031 9.36719 200.562 9.53906L199.414 15.2344ZM208.297 47.1094C207.5 48.5 206.672 49.7578 205.812 50.8828C204.969 52.0234 204.047 52.9922 203.047 53.7891C202.047 54.5859 200.938 55.1953 199.719 55.6172C198.516 56.0547 197.148 56.2734 195.617 56.2734C195.086 56.2734 194.453 56.2188 193.719 56.1094C192.969 56.0156 192.273 55.8516 191.633 55.6172L192.898 49.8984C193.227 50.1328 193.633 50.3125 194.117 50.4375C194.602 50.5625 195.086 50.625 195.57 50.625C196.492 50.625 197.352 50.4062 198.148 49.9688C198.945 49.5469 199.641 48.8516 200.234 47.8828L202.156 44.8594L197.492 21H205.273L206.961 35.6016C207.008 36.1328 207.039 36.7031 207.055 37.3125C207.07 37.9219 207.055 38.4219 207.008 38.8125H207.102C207.242 38.4219 207.422 37.9375 207.641 37.3594C207.859 36.7812 208.125 36.1953 208.438 35.6016L215.773 21H223.555L208.297 47.1094Z" fill="#F0F0F0"/>
</svg>
