<svg width="23" height="26" viewBox="0 0 23 26" fill="none" xmlns="http://www.w3.org/2000/svg">
<path d="M6.44697 17.7737C8.87862 19.768 12.499 20.7651 17.3081 20.7651C18.8879 20.7651 20.3205 20.5241 21.6061 20.0422C21.9313 19.9259 22.1907 19.8677 22.3843 19.8677C22.7948 19.8677 23 20.0796 23 20.5034C23 20.8357 22.7638 21.3883 22.2914 22.1611C20.7271 24.7204 18.9498 26 16.9596 26C15.9374 26 14.9577 25.7673 14.0207 25.302C12.6655 24.6456 11.229 23.582 9.71111 22.1112C8.19327 20.6405 7.10522 19.1946 6.44697 17.7737ZM10.5242 6.09492C9.23872 7.21668 8.25909 8.88271 7.58535 11.093C7.22912 12.2895 7.05101 13.5027 7.05101 14.7325C7.05101 16.8846 7.70539 17.9607 9.01414 17.9607C9.68013 17.9607 10.3694 17.6657 11.0818 17.0757C11.7943 16.4858 12.4332 15.7213 12.9985 14.7824C13.5715 13.8351 14.0401 12.7133 14.404 11.4171C14.7758 10.1208 14.9616 8.82454 14.9616 7.52828C14.9616 5.70022 14.6596 4.39981 14.0556 3.62704C13.4515 2.85427 12.437 2.46788 11.0121 2.46788C10.2222 2.46788 9.37037 2.55928 8.45657 2.74209C7.54276 2.9249 6.76835 3.12848 6.13333 3.35283C5.50606 3.56887 4.94074 3.7683 4.43737 3.9511C3.93401 4.13391 3.6436 4.22531 3.56616 4.22531C3.27963 4.22531 3.13636 4.10067 3.13636 3.85139C3.13636 3.65197 3.32609 3.39438 3.70556 3.07862C4.09276 2.75455 4.6271 2.41802 5.30859 2.06903C5.99007 1.71173 6.74512 1.37935 7.57374 1.07191C9.50202 0.357303 11.3877 0 13.2308 0C16.7699 0 19.2712 1.10515 20.7348 3.31544C21.5944 4.62001 22.0242 6.23202 22.0242 8.15149C22.0242 9.60562 21.788 10.9725 21.3157 12.2522C20.8433 13.5235 20.185 14.6369 19.3409 15.5925C18.4968 16.5481 17.5056 17.3707 16.3672 18.0604C14.0672 19.4481 11.4613 20.1419 8.54949 20.1419C2.84983 20.1419 0 18.0521 0 13.8725C0 12.7009 0.236195 11.5791 0.708586 10.5072C1.18098 9.42697 1.8005 8.49217 2.56717 7.70278C3.34158 6.90508 4.20892 6.20709 5.16919 5.60882C7.12071 4.41227 9.07997 3.814 11.047 3.814C11.3567 3.814 11.5774 3.87632 11.7091 4.00096C11.8485 4.11729 11.9182 4.23778 11.9182 4.36242C11.9182 4.48706 11.8988 4.59508 11.8601 4.68648C11.8291 4.76957 11.7633 4.86929 11.6626 4.98562C11.562 5.10195 11.4729 5.20166 11.3955 5.28476C11.2019 5.46756 10.9114 5.73762 10.5242 6.09492Z" fill="#2A225A"/>
</svg>
